<svg viewBox="0 0 300 400" xmlns="http://www.w3.org/2000/svg"><defs><linearGradient id="bgp333" x1="0" y1="0" x2="0" y2="1"><stop offset="0" stop-color="#fbf7ec"/><stop offset="1" stop-color="#eee5d2"/></linearGradient><linearGradient id="hg333" x1="0" y1="0" x2="0" y2="1"><stop offset="0" stop-color="#2d2d2d" stop-opacity=".82"/><stop offset=".55" stop-color="#2d2d2d"/><stop offset="1" stop-color="#000" stop-opacity=".8"/></linearGradient><linearGradient id="sheen333" x1="0" y1="0" x2="1" y2="1"><stop offset="0" stop-color="#fff" stop-opacity=".3"/><stop offset=".4" stop-color="#fff" stop-opacity="0"/></linearGradient><linearGradient id="gg333" x1="0" y1="0" x2="0" y2="1"><stop offset="0" stop-color="#f6e3a8"/><stop offset=".5" stop-color="#d8b355"/><stop offset="1" stop-color="#93731f"/></linearGradient><radialGradient id="sk333" cx=".4" cy=".32" r=".8"><stop offset="0" stop-color="#f2d6b2"/><stop offset=".72" stop-color="#f2d6b2"/><stop offset="1" stop-color="#cf9f74"/></radialGradient><linearGradient id="do333" x1="0" y1="0" x2="1" y2="0"><stop offset="0" stop-color="#000" stop-opacity=".35"/><stop offset=".35" stop-color="#2d2d2d"/><stop offset=".72" stop-color="#2d2d2d"/><stop offset="1" stop-color="#000" stop-opacity=".4"/></linearGradient><linearGradient id="so333" x1="0" y1="0" x2="1" y2="0"><stop offset="0" stop-color="#000" stop-opacity=".3"/><stop offset=".45" stop-color="#22402f"/><stop offset="1" stop-color="#000" stop-opacity=".35"/></linearGradient><radialGradient id="ir333" cx=".4" cy=".3" r=".8"><stop offset="0" stop-color="#7a5a3c"/><stop offset="1" stop-color="#2a1a10"/></radialGradient><filter id="pa333"><feTurbulence type="fractalNoise" baseFrequency=".85" numOctaves="4" seed="2334"/><feColorMatrix type="saturate" values="0"/></filter><filter id="wc333"><feTurbulence type="fractalNoise" baseFrequency=".012" numOctaves="3" seed="4334"/><feColorMatrix type="saturate" values="0"/><feComponentTransfer><feFuncA type="linear" slope=".5"/></feComponentTransfer></filter></defs><rect width="300" height="400" fill="url(#bgp333)"/><g transform="translate(150,168) scale(2.3) translate(-50,-50)" fill="#4a3b26" fill-rule="evenodd" opacity="0.1"><path d="M4,50a46,46 0 1,0 92,0a46,46 0 1,0 -92,0ZM9.5,50a40.5,40.5 0 1,0 81,0a40.5,40.5 0 1,0 -81,0ZM50,45C67,35 65.6,14 53.6,16C51.6,12.5 48.4,12.5 46.4,16C34.4,14 33,35 50,45ZM45.3,39L45.3,18L43.5,18L43.5,39ZM50.9,39L50.9,18L49.1,18L49.1,39ZM56.5,39L56.5,18L54.7,18L54.7,39ZM52.4,50L52.4,45L47.6,45L47.6,50ZM54.3,52.5C54.5,72.2 73.4,81.5 77.6,70.1C81.7,70.1 83.3,67.4 81.2,63.9C89,54.5 71.5,42.8 54.3,52.5ZM61.9,51.4L80.1,61.9L81.0,60.4L62.8,49.9ZM59.1,56.3L77.3,66.8L78.2,65.2L60.0,54.7ZM56.3,61.1L74.5,71.6L75.4,70.1L57.2,59.6ZM48.8,52.1L53.1,54.6L55.5,50.4L51.2,47.9ZM45.7,52.5C28.5,42.8 11,54.5 18.8,63.9C16.7,67.4 18.3,70.1 22.4,70.1C26.6,81.5 45.5,72.2 45.7,52.5ZM42.8,59.6L24.6,70.1L25.5,71.6L43.7,61.1ZM40.0,54.7L21.8,65.2L22.7,66.8L40.9,56.3ZM37.2,49.9L19.0,60.4L19.9,61.9L38.1,51.4ZM48.8,47.9L44.5,50.4L46.9,54.6L51.2,52.1ZM44.6,50a5.4,5.4 0 1,0 10.8,0a5.4,5.4 0 1,0 -10.8,0Z"/></g><path d="M90.3,172 C78.3,218 80.3,272 88.3,322 C110,338 190,338 211.7,322 C219.7,272 221.7,218 209.7,172 Z" fill="#2a2018"/><path d="M110,214 C96,262 88,306 98,346" stroke="#000" stroke-width="1.6" opacity=".22" fill="none"/><path d="M130,214 C123,262 119,306 124,346" stroke="#000" stroke-width="1.6" opacity=".22" fill="none"/><path d="M170,214 C177,262 181,306 176,346" stroke="#000" stroke-width="1.6" opacity=".22" fill="none"/><path d="M190,214 C204,262 212,306 202,346" stroke="#000" stroke-width="1.6" opacity=".22" fill="none"/><path d="M78.3,196 C70.3,240 72.3,286 80.3,330" stroke="#fff" stroke-width="3.4" opacity=".16" fill="none"/><path d="M221.7,196 C229.7,240 227.7,286 219.7,330" stroke="#fff" stroke-width="3.4" opacity=".16" fill="none"/><path d="M128,233 L128,274 Q150,288 172,274 L172,233 Z" fill="url(#sk333)" stroke="#2b2119" stroke-width="1.8"/><path d="M128,237 Q150,265 172,237 L172,231 L128,231Z" fill="#a9704a" opacity=".38"/><path d="M114,400 L126,276 C136,268 164,268 174,276 L186,400 Z" fill="#f3ece0" stroke="#2b2119" stroke-width="1.5"/><path d="M150,284 L132,400 M150,284 L168,400" stroke="#2b2119" stroke-width="1.3" fill="none" opacity=".45"/><path d="M80,272 C46,266 17.4,282 12,308 L8,400 L90,400 Z" fill="url(#so333)" stroke="#2b2119" stroke-width="2" stroke-linejoin="round"/><path d="M80,272 C46,266 17.4,282 12,308" stroke="url(#gg333)" stroke-width="2.4" fill="none"/><path d="M88,295 C52.8,289 25.6,291 9,297" stroke="#2b2119" stroke-width="1.5" fill="none" opacity=".7"/><path d="M84,291 l0,10" stroke="#d8b355" stroke-width="2.6" stroke-linecap="round"/><circle cx="84" cy="304" r="1.6" fill="#c4472f" opacity=".95"/><path d="M61.8,293.5 l0,10" stroke="#d8b355" stroke-width="2.6" stroke-linecap="round"/><circle cx="61.8" cy="306.5" r="1.6" fill="#c4472f" opacity=".95"/><path d="M39.6,293.8 l0,10" stroke="#d8b355" stroke-width="2.6" stroke-linecap="round"/><circle cx="39.6" cy="306.8" r="1.6" fill="#c4472f" opacity=".95"/><path d="M17.4,291.7 l0,10" stroke="#d8b355" stroke-width="2.6" stroke-linecap="round"/><circle cx="17.4" cy="304.7" r="1.6" fill="#c4472f" opacity=".95"/><path d="M88,312 C52.8,306 25.6,308 9,314" stroke="#2b2119" stroke-width="1.5" fill="none" opacity=".7"/><path d="M84,308 l0,10" stroke="#d8b355" stroke-width="2.6" stroke-linecap="round"/><circle cx="84" cy="321" r="1.6" fill="#c4472f" opacity=".95"/><path d="M61.8,310.5 l0,10" stroke="#d8b355" stroke-width="2.6" stroke-linecap="round"/><circle cx="61.8" cy="323.5" r="1.6" fill="#c4472f" opacity=".95"/><path d="M39.6,310.8 l0,10" stroke="#d8b355" stroke-width="2.6" stroke-linecap="round"/><circle cx="39.6" cy="323.8" r="1.6" fill="#c4472f" opacity=".95"/><path d="M17.4,308.7 l0,10" stroke="#d8b355" stroke-width="2.6" stroke-linecap="round"/><circle cx="17.4" cy="321.7" r="1.6" fill="#c4472f" opacity=".95"/><path d="M88,329 C52.8,323 25.6,325 9,331" stroke="#2b2119" stroke-width="1.5" fill="none" opacity=".7"/><path d="M84,325 l0,10" stroke="#d8b355" stroke-width="2.6" stroke-linecap="round"/><circle cx="84" cy="338" r="1.6" fill="#c4472f" opacity=".95"/><path d="M61.8,327.5 l0,10" stroke="#d8b355" stroke-width="2.6" stroke-linecap="round"/><circle cx="61.8" cy="340.5" r="1.6" fill="#c4472f" opacity=".95"/><path d="M39.6,327.8 l0,10" stroke="#d8b355" stroke-width="2.6" stroke-linecap="round"/><circle cx="39.6" cy="340.8" r="1.6" fill="#c4472f" opacity=".95"/><path d="M17.4,325.7 l0,10" stroke="#d8b355" stroke-width="2.6" stroke-linecap="round"/><circle cx="17.4" cy="338.7" r="1.6" fill="#c4472f" opacity=".95"/><path d="M88,346 C52.8,340 25.6,342 9,348" stroke="#2b2119" stroke-width="1.5" fill="none" opacity=".7"/><path d="M84,342 l0,10" stroke="#d8b355" stroke-width="2.6" stroke-linecap="round"/><circle cx="84" cy="355" r="1.6" fill="#c4472f" opacity=".95"/><path d="M61.8,344.5 l0,10" stroke="#d8b355" stroke-width="2.6" stroke-linecap="round"/><circle cx="61.8" cy="357.5" r="1.6" fill="#c4472f" opacity=".95"/><path d="M39.6,344.8 l0,10" stroke="#d8b355" stroke-width="2.6" stroke-linecap="round"/><circle cx="39.6" cy="357.8" r="1.6" fill="#c4472f" opacity=".95"/><path d="M17.4,342.7 l0,10" stroke="#d8b355" stroke-width="2.6" stroke-linecap="round"/><circle cx="17.4" cy="355.7" r="1.6" fill="#c4472f" opacity=".95"/><path d="M88,363 C52.8,357 25.6,359 9,365" stroke="#2b2119" stroke-width="1.5" fill="none" opacity=".7"/><path d="M84,359 l0,10" stroke="#d8b355" stroke-width="2.6" stroke-linecap="round"/><circle cx="84" cy="372" r="1.6" fill="#c4472f" opacity=".95"/><path d="M61.8,361.5 l0,10" stroke="#d8b355" stroke-width="2.6" stroke-linecap="round"/><circle cx="61.8" cy="374.5" r="1.6" fill="#c4472f" opacity=".95"/><path d="M39.6,361.8 l0,10" stroke="#d8b355" stroke-width="2.6" stroke-linecap="round"/><circle cx="39.6" cy="374.8" r="1.6" fill="#c4472f" opacity=".95"/><path d="M17.4,359.7 l0,10" stroke="#d8b355" stroke-width="2.6" stroke-linecap="round"/><circle cx="17.4" cy="372.7" r="1.6" fill="#c4472f" opacity=".95"/><circle cx="66" cy="278" r="3" fill="url(#gg333)" stroke="#2b2119" stroke-width=".9"/><path d="M220,272 C254,266 282.6,282 288,308 L292,400 L210,400 Z" fill="url(#so333)" stroke="#2b2119" stroke-width="2" stroke-linejoin="round"/><path d="M220,272 C254,266 282.6,282 288,308" stroke="url(#gg333)" stroke-width="2.4" fill="none"/><path d="M212,295 C247.2,289 274.4,291 291,297" stroke="#2b2119" stroke-width="1.5" fill="none" opacity=".7"/><path d="M216,291 l0,10" stroke="#d8b355" stroke-width="2.6" stroke-linecap="round"/><circle cx="216" cy="304" r="1.6" fill="#c4472f" opacity=".95"/><path d="M238.2,293.5 l0,10" stroke="#d8b355" stroke-width="2.6" stroke-linecap="round"/><circle cx="238.2" cy="306.5" r="1.6" fill="#c4472f" opacity=".95"/><path d="M260.4,293.8 l0,10" stroke="#d8b355" stroke-width="2.6" stroke-linecap="round"/><circle cx="260.4" cy="306.8" r="1.6" fill="#c4472f" opacity=".95"/><path d="M282.6,291.7 l0,10" stroke="#d8b355" stroke-width="2.6" stroke-linecap="round"/><circle cx="282.6" cy="304.7" r="1.6" fill="#c4472f" opacity=".95"/><path d="M212,312 C247.2,306 274.4,308 291,314" stroke="#2b2119" stroke-width="1.5" fill="none" opacity=".7"/><path d="M216,308 l0,10" stroke="#d8b355" stroke-width="2.6" stroke-linecap="round"/><circle cx="216" cy="321" r="1.6" fill="#c4472f" opacity=".95"/><path d="M238.2,310.5 l0,10" stroke="#d8b355" stroke-width="2.6" stroke-linecap="round"/><circle cx="238.2" cy="323.5" r="1.6" fill="#c4472f" opacity=".95"/><path d="M260.4,310.8 l0,10" stroke="#d8b355" stroke-width="2.6" stroke-linecap="round"/><circle cx="260.4" cy="323.8" r="1.6" fill="#c4472f" opacity=".95"/><path d="M282.6,308.7 l0,10" stroke="#d8b355" stroke-width="2.6" stroke-linecap="round"/><circle cx="282.6" cy="321.7" r="1.6" fill="#c4472f" opacity=".95"/><path d="M212,329 C247.2,323 274.4,325 291,331" stroke="#2b2119" stroke-width="1.5" fill="none" opacity=".7"/><path d="M216,325 l0,10" stroke="#d8b355" stroke-width="2.6" stroke-linecap="round"/><circle cx="216" cy="338" r="1.6" fill="#c4472f" opacity=".95"/><path d="M238.2,327.5 l0,10" stroke="#d8b355" stroke-width="2.6" stroke-linecap="round"/><circle cx="238.2" cy="340.5" r="1.6" fill="#c4472f" opacity=".95"/><path d="M260.4,327.8 l0,10" stroke="#d8b355" stroke-width="2.6" stroke-linecap="round"/><circle cx="260.4" cy="340.8" r="1.6" fill="#c4472f" opacity=".95"/><path d="M282.6,325.7 l0,10" stroke="#d8b355" stroke-width="2.6" stroke-linecap="round"/><circle cx="282.6" cy="338.7" r="1.6" fill="#c4472f" opacity=".95"/><path d="M212,346 C247.2,340 274.4,342 291,348" stroke="#2b2119" stroke-width="1.5" fill="none" opacity=".7"/><path d="M216,342 l0,10" stroke="#d8b355" stroke-width="2.6" stroke-linecap="round"/><circle cx="216" cy="355" r="1.6" fill="#c4472f" opacity=".95"/><path d="M238.2,344.5 l0,10" stroke="#d8b355" stroke-width="2.6" stroke-linecap="round"/><circle cx="238.2" cy="357.5" r="1.6" fill="#c4472f" opacity=".95"/><path d="M260.4,344.8 l0,10" stroke="#d8b355" stroke-width="2.6" stroke-linecap="round"/><circle cx="260.4" cy="357.8" r="1.6" fill="#c4472f" opacity=".95"/><path d="M282.6,342.7 l0,10" stroke="#d8b355" stroke-width="2.6" stroke-linecap="round"/><circle cx="282.6" cy="355.7" r="1.6" fill="#c4472f" opacity=".95"/><path d="M212,363 C247.2,357 274.4,359 291,365" stroke="#2b2119" stroke-width="1.5" fill="none" opacity=".7"/><path d="M216,359 l0,10" stroke="#d8b355" stroke-width="2.6" stroke-linecap="round"/><circle cx="216" cy="372" r="1.6" fill="#c4472f" opacity=".95"/><path d="M238.2,361.5 l0,10" stroke="#d8b355" stroke-width="2.6" stroke-linecap="round"/><circle cx="238.2" cy="374.5" r="1.6" fill="#c4472f" opacity=".95"/><path d="M260.4,361.8 l0,10" stroke="#d8b355" stroke-width="2.6" stroke-linecap="round"/><circle cx="260.4" cy="374.8" r="1.6" fill="#c4472f" opacity=".95"/><path d="M282.6,359.7 l0,10" stroke="#d8b355" stroke-width="2.6" stroke-linecap="round"/><circle cx="282.6" cy="372.7" r="1.6" fill="#c4472f" opacity=".95"/><circle cx="234" cy="278" r="3" fill="url(#gg333)" stroke="#2b2119" stroke-width=".9"/><path d="M116,280 C126,258 174,258 184,280 L180,294 C170,274 130,274 120,294 Z" fill="#2d2d2d" stroke="#2b2119" stroke-width="1.7" stroke-linejoin="round"/><path d="M117,280 C127,259 173,259 183,280" stroke="url(#gg333)" stroke-width="2.2" fill="none"/><path d="M84,400 L98,286 C118,273 182,273 202,286 L216,400 Z" fill="url(#do333)" stroke="#2b2119" stroke-width="2.2" stroke-linejoin="round"/><path d="M98,286 C118,273 182,273 202,286 L201,300 C181,287 119,287 99,300 Z" fill="url(#gg333)" stroke="#2b2119" stroke-width="1.6"/><path d="M96,304 C128.4,309 171.6,309 204,304 L205.6,324 C171.6,329 128.4,329 94.4,324 Z" fill="url(#do333)" stroke="#2b2119" stroke-width="1.6" stroke-linejoin="round"/><path d="M96,304 C128.4,309 171.6,309 204,304" stroke="url(#gg333)" stroke-width="1.5" fill="none" opacity=".8"/><circle cx="103.0" cy="314.4" r="2" fill="#efe4c8" opacity=".9" stroke="#2b2119" stroke-width=".7"/><circle cx="114.8" cy="313.8" r="2" fill="#efe4c8" opacity=".9" stroke="#2b2119" stroke-width=".7"/><circle cx="126.5" cy="313.2" r="2" fill="#efe4c8" opacity=".9" stroke="#2b2119" stroke-width=".7"/><circle cx="138.3" cy="312.6" r="2" fill="#efe4c8" opacity=".9" stroke="#2b2119" stroke-width=".7"/><circle cx="150" cy="312" r="2" fill="#efe4c8" opacity=".9" stroke="#2b2119" stroke-width=".7"/><circle cx="161.7" cy="312.6" r="2" fill="#efe4c8" opacity=".9" stroke="#2b2119" stroke-width=".7"/><circle cx="173.5" cy="313.2" r="2" fill="#efe4c8" opacity=".9" stroke="#2b2119" stroke-width=".7"/><circle cx="185.2" cy="313.8" r="2" fill="#efe4c8" opacity=".9" stroke="#2b2119" stroke-width=".7"/><circle cx="197.0" cy="314.4" r="2" fill="#efe4c8" opacity=".9" stroke="#2b2119" stroke-width=".7"/><path d="M100,323 l0,6" stroke="#c4472f" stroke-width="2.4" stroke-linecap="round" opacity=".95"/><path d="M110,323 l0,6" stroke="#c4472f" stroke-width="2.4" stroke-linecap="round" opacity=".95"/><path d="M120,323 l0,6" stroke="#c4472f" stroke-width="2.4" stroke-linecap="round" opacity=".95"/><path d="M130,323 l0,6" stroke="#c4472f" stroke-width="2.4" stroke-linecap="round" opacity=".95"/><path d="M140,323 l0,6" stroke="#c4472f" stroke-width="2.4" stroke-linecap="round" opacity=".95"/><path d="M150,323 l0,6" stroke="#c4472f" stroke-width="2.4" stroke-linecap="round" opacity=".95"/><path d="M160,323 l0,6" stroke="#c4472f" stroke-width="2.4" stroke-linecap="round" opacity=".95"/><path d="M170,323 l0,6" stroke="#c4472f" stroke-width="2.4" stroke-linecap="round" opacity=".95"/><path d="M180,323 l0,6" stroke="#c4472f" stroke-width="2.4" stroke-linecap="round" opacity=".95"/><path d="M190,323 l0,6" stroke="#c4472f" stroke-width="2.4" stroke-linecap="round" opacity=".95"/><path d="M200,323 l0,6" stroke="#c4472f" stroke-width="2.4" stroke-linecap="round" opacity=".95"/><path d="M91,326 C126.4,331 173.6,331 209,326 L210.6,346 C173.6,351 126.4,351 89.4,346 Z" fill="url(#do333)" stroke="#2b2119" stroke-width="1.6" stroke-linejoin="round"/><path d="M91,326 C126.4,331 173.6,331 209,326" stroke="url(#gg333)" stroke-width="1.5" fill="none" opacity=".8"/><circle cx="98.7" cy="336.4" r="2" fill="#efe4c8" opacity=".9" stroke="#2b2119" stroke-width=".7"/><circle cx="111.5" cy="335.8" r="2" fill="#efe4c8" opacity=".9" stroke="#2b2119" stroke-width=".7"/><circle cx="124.3" cy="335.2" r="2" fill="#efe4c8" opacity=".9" stroke="#2b2119" stroke-width=".7"/><circle cx="137.2" cy="334.6" r="2" fill="#efe4c8" opacity=".9" stroke="#2b2119" stroke-width=".7"/><circle cx="150" cy="334" r="2" fill="#efe4c8" opacity=".9" stroke="#2b2119" stroke-width=".7"/><circle cx="162.8" cy="334.6" r="2" fill="#efe4c8" opacity=".9" stroke="#2b2119" stroke-width=".7"/><circle cx="175.7" cy="335.2" r="2" fill="#efe4c8" opacity=".9" stroke="#2b2119" stroke-width=".7"/><circle cx="188.5" cy="335.8" r="2" fill="#efe4c8" opacity=".9" stroke="#2b2119" stroke-width=".7"/><circle cx="201.3" cy="336.4" r="2" fill="#efe4c8" opacity=".9" stroke="#2b2119" stroke-width=".7"/><path d="M95.4,345 l0,6" stroke="#c4472f" stroke-width="2.4" stroke-linecap="round" opacity=".95"/><path d="M106.3,345 l0,6" stroke="#c4472f" stroke-width="2.4" stroke-linecap="round" opacity=".95"/><path d="M117.2,345 l0,6" stroke="#c4472f" stroke-width="2.4" stroke-linecap="round" opacity=".95"/><path d="M128.1,345 l0,6" stroke="#c4472f" stroke-width="2.4" stroke-linecap="round" opacity=".95"/><path d="M139.1,345 l0,6" stroke="#c4472f" stroke-width="2.4" stroke-linecap="round" opacity=".95"/><path d="M150,345 l0,6" stroke="#c4472f" stroke-width="2.4" stroke-linecap="round" opacity=".95"/><path d="M160.9,345 l0,6" stroke="#c4472f" stroke-width="2.4" stroke-linecap="round" opacity=".95"/><path d="M171.9,345 l0,6" stroke="#c4472f" stroke-width="2.4" stroke-linecap="round" opacity=".95"/><path d="M182.8,345 l0,6" stroke="#c4472f" stroke-width="2.4" stroke-linecap="round" opacity=".95"/><path d="M193.7,345 l0,6" stroke="#c4472f" stroke-width="2.4" stroke-linecap="round" opacity=".95"/><path d="M204.6,345 l0,6" stroke="#c4472f" stroke-width="2.4" stroke-linecap="round" opacity=".95"/><path d="M86,348 C124.4,353 175.6,353 214,348 L215.6,368 C175.6,373 124.4,373 84.4,368 Z" fill="url(#do333)" stroke="#2b2119" stroke-width="1.6" stroke-linejoin="round"/><path d="M86,348 C124.4,353 175.6,353 214,348" stroke="url(#gg333)" stroke-width="1.5" fill="none" opacity=".8"/><circle cx="94.3" cy="358.4" r="2" fill="#efe4c8" opacity=".9" stroke="#2b2119" stroke-width=".7"/><circle cx="108.3" cy="357.8" r="2" fill="#efe4c8" opacity=".9" stroke="#2b2119" stroke-width=".7"/><circle cx="122.2" cy="357.2" r="2" fill="#efe4c8" opacity=".9" stroke="#2b2119" stroke-width=".7"/><circle cx="136.1" cy="356.6" r="2" fill="#efe4c8" opacity=".9" stroke="#2b2119" stroke-width=".7"/><circle cx="150" cy="356" r="2" fill="#efe4c8" opacity=".9" stroke="#2b2119" stroke-width=".7"/><circle cx="163.9" cy="356.6" r="2" fill="#efe4c8" opacity=".9" stroke="#2b2119" stroke-width=".7"/><circle cx="177.8" cy="357.2" r="2" fill="#efe4c8" opacity=".9" stroke="#2b2119" stroke-width=".7"/><circle cx="191.7" cy="357.8" r="2" fill="#efe4c8" opacity=".9" stroke="#2b2119" stroke-width=".7"/><circle cx="205.7" cy="358.4" r="2" fill="#efe4c8" opacity=".9" stroke="#2b2119" stroke-width=".7"/><path d="M90.7,367 l0,6" stroke="#c4472f" stroke-width="2.4" stroke-linecap="round" opacity=".95"/><path d="M102.6,367 l0,6" stroke="#c4472f" stroke-width="2.4" stroke-linecap="round" opacity=".95"/><path d="M114.4,367 l0,6" stroke="#c4472f" stroke-width="2.4" stroke-linecap="round" opacity=".95"/><path d="M126.3,367 l0,6" stroke="#c4472f" stroke-width="2.4" stroke-linecap="round" opacity=".95"/><path d="M138.1,367 l0,6" stroke="#c4472f" stroke-width="2.4" stroke-linecap="round" opacity=".95"/><path d="M150,367 l0,6" stroke="#c4472f" stroke-width="2.4" stroke-linecap="round" opacity=".95"/><path d="M161.9,367 l0,6" stroke="#c4472f" stroke-width="2.4" stroke-linecap="round" opacity=".95"/><path d="M173.7,367 l0,6" stroke="#c4472f" stroke-width="2.4" stroke-linecap="round" opacity=".95"/><path d="M185.6,367 l0,6" stroke="#c4472f" stroke-width="2.4" stroke-linecap="round" opacity=".95"/><path d="M197.4,367 l0,6" stroke="#c4472f" stroke-width="2.4" stroke-linecap="round" opacity=".95"/><path d="M209.3,367 l0,6" stroke="#c4472f" stroke-width="2.4" stroke-linecap="round" opacity=".95"/><path d="M150,301 L150,400" stroke="#2b2119" stroke-width="1.2" opacity=".3" fill="none"/><path d="M135,289 q15,-10 30,0" stroke="#c4472f" stroke-width="3" fill="none" stroke-linecap="round"/><path d="M150,283 q-10,6 -4,12 q4,5 4,-1 q0,6 4,1 q6,-6 -4,-12 Z" fill="#c4472f" stroke="#2b2119" stroke-width="1"/><circle cx="150" cy="378" r="17" fill="#f4ecda" stroke="#2b2119" stroke-width="1.4"/><g transform="translate(150,378) scale(0.3) translate(-50,-50)" fill="#241c15" fill-rule="evenodd"><path d="M4,50a46,46 0 1,0 92,0a46,46 0 1,0 -92,0ZM9.5,50a40.5,40.5 0 1,0 81,0a40.5,40.5 0 1,0 -81,0ZM50,45C67,35 65.6,14 53.6,16C51.6,12.5 48.4,12.5 46.4,16C34.4,14 33,35 50,45ZM45.3,39L45.3,18L43.5,18L43.5,39ZM50.9,39L50.9,18L49.1,18L49.1,39ZM56.5,39L56.5,18L54.7,18L54.7,39ZM52.4,50L52.4,45L47.6,45L47.6,50ZM54.3,52.5C54.5,72.2 73.4,81.5 77.6,70.1C81.7,70.1 83.3,67.4 81.2,63.9C89,54.5 71.5,42.8 54.3,52.5ZM61.9,51.4L80.1,61.9L81.0,60.4L62.8,49.9ZM59.1,56.3L77.3,66.8L78.2,65.2L60.0,54.7ZM56.3,61.1L74.5,71.6L75.4,70.1L57.2,59.6ZM48.8,52.1L53.1,54.6L55.5,50.4L51.2,47.9ZM45.7,52.5C28.5,42.8 11,54.5 18.8,63.9C16.7,67.4 18.3,70.1 22.4,70.1C26.6,81.5 45.5,72.2 45.7,52.5ZM42.8,59.6L24.6,70.1L25.5,71.6L43.7,61.1ZM40.0,54.7L21.8,65.2L22.7,66.8L40.9,56.3ZM37.2,49.9L19.0,60.4L19.9,61.9L38.1,51.4ZM48.8,47.9L44.5,50.4L46.9,54.6L51.2,52.1ZM44.6,50a5.4,5.4 0 1,0 10.8,0a5.4,5.4 0 1,0 -10.8,0Z"/></g><path d="M70,156 C110,165 190,165 230,156 L232,171 C190,180 110,180 68,171 Z" fill="#2d2d2d" stroke="#2b2119" stroke-width="1.7" stroke-linejoin="round"/><path d="M70,156 C110,165 190,165 230,156" stroke="url(#gg333)" stroke-width="1.5" fill="none" opacity=".7"/><path d="M75,160.9 l0,10" stroke="#d8b355" stroke-width="2.4" stroke-linecap="round"/><path d="M87.5,161.7 l0,10" stroke="#d8b355" stroke-width="2.4" stroke-linecap="round"/><path d="M100,162.6 l0,10" stroke="#d8b355" stroke-width="2.4" stroke-linecap="round"/><path d="M112.5,163.4 l0,10" stroke="#d8b355" stroke-width="2.4" stroke-linecap="round"/><path d="M125,164.3 l0,10" stroke="#d8b355" stroke-width="2.4" stroke-linecap="round"/><path d="M137.5,165.1 l0,10" stroke="#d8b355" stroke-width="2.4" stroke-linecap="round"/><path d="M150,166 l0,10" stroke="#d8b355" stroke-width="2.4" stroke-linecap="round"/><path d="M162.5,165.1 l0,10" stroke="#d8b355" stroke-width="2.4" stroke-linecap="round"/><path d="M175,164.3 l0,10" stroke="#d8b355" stroke-width="2.4" stroke-linecap="round"/><path d="M187.5,163.4 l0,10" stroke="#d8b355" stroke-width="2.4" stroke-linecap="round"/><path d="M200,162.6 l0,10" stroke="#d8b355" stroke-width="2.4" stroke-linecap="round"/><path d="M212.5,161.7 l0,10" stroke="#d8b355" stroke-width="2.4" stroke-linecap="round"/><path d="M225,160.9 l0,10" stroke="#d8b355" stroke-width="2.4" stroke-linecap="round"/><path d="M60,170 C105,179 195,179 240,170 L242,185 C195,194 105,194 58,185 Z" fill="#2d2d2d" stroke="#2b2119" stroke-width="1.7" stroke-linejoin="round"/><path d="M60,170 C105,179 195,179 240,170" stroke="url(#gg333)" stroke-width="1.5" fill="none" opacity=".7"/><path d="M65.6,174.9 l0,10" stroke="#d8b355" stroke-width="2.4" stroke-linecap="round"/><path d="M79.7,175.7 l0,10" stroke="#d8b355" stroke-width="2.4" stroke-linecap="round"/><path d="M93.8,176.6 l0,10" stroke="#d8b355" stroke-width="2.4" stroke-linecap="round"/><path d="M107.8,177.4 l0,10" stroke="#d8b355" stroke-width="2.4" stroke-linecap="round"/><path d="M121.9,178.3 l0,10" stroke="#d8b355" stroke-width="2.4" stroke-linecap="round"/><path d="M135.9,179.1 l0,10" stroke="#d8b355" stroke-width="2.4" stroke-linecap="round"/><path d="M150,180 l0,10" stroke="#d8b355" stroke-width="2.4" stroke-linecap="round"/><path d="M164.1,179.1 l0,10" stroke="#d8b355" stroke-width="2.4" stroke-linecap="round"/><path d="M178.1,178.3 l0,10" stroke="#d8b355" stroke-width="2.4" stroke-linecap="round"/><path d="M192.2,177.4 l0,10" stroke="#d8b355" stroke-width="2.4" stroke-linecap="round"/><path d="M206.3,176.6 l0,10" stroke="#d8b355" stroke-width="2.4" stroke-linecap="round"/><path d="M220.3,175.7 l0,10" stroke="#d8b355" stroke-width="2.4" stroke-linecap="round"/><path d="M234.4,174.9 l0,10" stroke="#d8b355" stroke-width="2.4" stroke-linecap="round"/><path d="M50,184 C100,193 200,193 250,184 L252,199 C200,208 100,208 48,199 Z" fill="#2d2d2d" stroke="#2b2119" stroke-width="1.7" stroke-linejoin="round"/><path d="M50,184 C100,193 200,193 250,184" stroke="url(#gg333)" stroke-width="1.5" fill="none" opacity=".7"/><path d="M56.3,188.9 l0,10" stroke="#d8b355" stroke-width="2.4" stroke-linecap="round"/><path d="M71.9,189.7 l0,10" stroke="#d8b355" stroke-width="2.4" stroke-linecap="round"/><path d="M87.5,190.6 l0,10" stroke="#d8b355" stroke-width="2.4" stroke-linecap="round"/><path d="M103.1,191.4 l0,10" stroke="#d8b355" stroke-width="2.4" stroke-linecap="round"/><path d="M118.8,192.3 l0,10" stroke="#d8b355" stroke-width="2.4" stroke-linecap="round"/><path d="M134.4,193.1 l0,10" stroke="#d8b355" stroke-width="2.4" stroke-linecap="round"/><path d="M150,194 l0,10" stroke="#d8b355" stroke-width="2.4" stroke-linecap="round"/><path d="M165.6,193.1 l0,10" stroke="#d8b355" stroke-width="2.4" stroke-linecap="round"/><path d="M181.3,192.3 l0,10" stroke="#d8b355" stroke-width="2.4" stroke-linecap="round"/><path d="M196.9,191.4 l0,10" stroke="#d8b355" stroke-width="2.4" stroke-linecap="round"/><path d="M212.5,190.6 l0,10" stroke="#d8b355" stroke-width="2.4" stroke-linecap="round"/><path d="M228.1,189.7 l0,10" stroke="#d8b355" stroke-width="2.4" stroke-linecap="round"/><path d="M243.8,188.9 l0,10" stroke="#d8b355" stroke-width="2.4" stroke-linecap="round"/><path d="M40,198 C95,207 205,207 260,198 L262,213 C205,222 95,222 38,213 Z" fill="#2d2d2d" stroke="#2b2119" stroke-width="1.7" stroke-linejoin="round"/><path d="M40,198 C95,207 205,207 260,198" stroke="url(#gg333)" stroke-width="1.5" fill="none" opacity=".7"/><path d="M46.9,202.9 l0,10" stroke="#d8b355" stroke-width="2.4" stroke-linecap="round"/><path d="M64.1,203.7 l0,10" stroke="#d8b355" stroke-width="2.4" stroke-linecap="round"/><path d="M81.3,204.6 l0,10" stroke="#d8b355" stroke-width="2.4" stroke-linecap="round"/><path d="M98.4,205.4 l0,10" stroke="#d8b355" stroke-width="2.4" stroke-linecap="round"/><path d="M115.6,206.3 l0,10" stroke="#d8b355" stroke-width="2.4" stroke-linecap="round"/><path d="M132.8,207.1 l0,10" stroke="#d8b355" stroke-width="2.4" stroke-linecap="round"/><path d="M150,208 l0,10" stroke="#d8b355" stroke-width="2.4" stroke-linecap="round"/><path d="M167.2,207.1 l0,10" stroke="#d8b355" stroke-width="2.4" stroke-linecap="round"/><path d="M184.4,206.3 l0,10" stroke="#d8b355" stroke-width="2.4" stroke-linecap="round"/><path d="M201.6,205.4 l0,10" stroke="#d8b355" stroke-width="2.4" stroke-linecap="round"/><path d="M218.8,204.6 l0,10" stroke="#d8b355" stroke-width="2.4" stroke-linecap="round"/><path d="M235.9,203.7 l0,10" stroke="#d8b355" stroke-width="2.4" stroke-linecap="round"/><path d="M253.1,202.9 l0,10" stroke="#d8b355" stroke-width="2.4" stroke-linecap="round"/><path d="M150,106 C198.4,106 207.7,136 207.7,182 C207.7,214 199.1,231 150,245 C100.9,231 92.3,214 92.3,182 C92.3,136 101.6,106 150,106 Z" fill="url(#sk333)" stroke="#2b2119" stroke-width="1.9" stroke-linejoin="round"/><path d="M94.3,174 c-9,-3 -13,9 -9,20 c2,8 7,12 11,11" fill="url(#sk333)" stroke="#2b2119" stroke-width="1.6"/><path d="M205.7,174 c9,-3 13,9 9,20 c-2,8 -7,12 -11,11" fill="url(#sk333)" stroke="#2b2119" stroke-width="1.6"/><path d="M96.3,186 C104.3,218 122,229 150,241 C178,229 195.7,218 203.7,186 Z" fill="#c98f5e" opacity=".14"/><path d="M111.9,208 q4,30 18,40 M188.1,208 q-4,30 -18,40" stroke="#c08553" stroke-width="2.2" fill="none" opacity=".35"/><path d="M135,172 Q122.5,161 110.1,168" stroke="#2a2018" stroke-width="4.4" fill="none" stroke-linecap="round"/><path d="M165,172 Q177.5,161 189.9,168" stroke="#2a2018" stroke-width="4.4" fill="none" stroke-linecap="round"/><path d="M112.4,190 Q126.2,182.4 139.9,190 Q126.2,195.5 112.4,190Z" fill="#fdfaf4" stroke="#2b2119" stroke-width="1.5"/><ellipse cx="126.2" cy="189.6" rx="4.8" ry="5.2" fill="url(#ir333)"/><circle cx="126.2" cy="190.2" r="2.4" fill="#120c08"/><circle cx="124.1" cy="187.5" r="1.6" fill="#fff" opacity=".9"/><path d="M112.4,190 Q126.2,180.2 139.9,190" stroke="#2b2119" stroke-width="2.6" fill="none" stroke-linecap="round"/><path d="M115.8,178.2 Q126.2,176.4 137.2,187.6" stroke="#b88a63" stroke-width="1.3" fill="none" opacity=".7"/><path d="M160.1,190 Q173.8,182.4 187.6,190 Q173.8,195.5 160.1,190Z" fill="#fdfaf4" stroke="#2b2119" stroke-width="1.5"/><ellipse cx="173.8" cy="189.6" rx="4.8" ry="5.2" fill="url(#ir333)"/><circle cx="173.8" cy="190.2" r="2.4" fill="#120c08"/><circle cx="171.8" cy="187.5" r="1.6" fill="#fff" opacity=".9"/><path d="M160.1,190 Q173.8,180.2 187.6,190" stroke="#2b2119" stroke-width="2.6" fill="none" stroke-linecap="round"/><path d="M163.5,178.2 Q173.8,176.4 184.8,187.6" stroke="#b88a63" stroke-width="1.3" fill="none" opacity=".7"/><path d="M148,205 C145,212 145,216 149,217" stroke="#2b2119" stroke-width="1.7" fill="none" stroke-linecap="round"/><path d="M145.4,218 q4.6,4 9.2,-1" stroke="#2b2119" stroke-width="1.5" fill="none" stroke-linecap="round" opacity=".8"/><circle cx="146.4" cy="216.5" r="1.1" fill="#2b2119" opacity=".55"/><circle cx="153.6" cy="216.5" r="1.1" fill="#2b2119" opacity=".55"/><path d="M143.4,209 q6.6,10 13.2,-1" stroke="#c08553" stroke-width="2.4" fill="none" opacity=".2"/><path d="M137,237 Q150,233 163,237" stroke="#8a4a3a" stroke-width="2.2" fill="none" stroke-linecap="round"/><path d="M149,220 l0,14" stroke="#c08553" stroke-width="1.6" fill="none" opacity=".3"/><path d="M142.2,242 q7.8,3 15.6,0" stroke="#d99a86" stroke-width="2" fill="none" opacity=".5" stroke-linecap="round"/><path d="M133,216 q-10,17 -7,29 M167,216 q10,17 7,29" stroke="#b07d52" stroke-width="1.8" fill="none" opacity=".5"/><path d="M147,229 C138.0,225 127.9,228 121.5,238 C129.8,229.4 139.9,228.4 147,228.4 Z" fill="#6a6154"/><path d="M153,229 C162.0,225 172.1,228 178.5,238 C170.2,229.4 160.1,228.4 153,228.4 Z" fill="#6a6154"/><path d="M142,246 q8,-4 16,0 q0,10 -3,16 q-5,7 -10,0 q-3,-6 -3,-16 Z" fill="#6a6154"/><path d="M90.3,158 C79.3,196 80.3,238 87.3,278 L97.3,272 C90.3,236 89.3,196 98.3,160 Z" fill="#2a2018"/><path d="M209.7,158 C219.7,192 218.7,228 211.7,262 L201.7,256 C208.7,224 209.7,192 201.7,160 Z" fill="#2a2018"/><path d="M136,158 C130,169 138,177 144,181 L148,176 C141,172 138,166 142,158 Z" fill="#2a2018" opacity=".95"/><path d="M76,152 C74,110 100,78 150,58 C200,78 226,110 224,152 Z" fill="url(#hg333)" stroke="#2b2119" stroke-width="2" stroke-linejoin="round"/><path d="M76,152 C74,110 100,78 150,58 C200,78 226,110 224,152 Z" fill="url(#sheen333)" opacity=".5"/><path d="M74,152 Q150,130 226,152 L224,168 Q150,146 76,168 Z" fill="#2d2d2d" stroke="#2b2119" stroke-width="1.8" stroke-linejoin="round"/><path d="M76,153 Q150,132 224,153" stroke="url(#gg333)" stroke-width="2" fill="none"/><path d="M80,156 C58,146 42,150 36,162 C44,174 58,180 74,182 Z" fill="#2d2d2d" stroke="#2b2119" stroke-width="1.8" stroke-linejoin="round"/><path d="M74,160 C58,154 48,157 42,163" stroke="url(#gg333)" stroke-width="2" fill="none"/><circle cx="54" cy="168" r="2.4" fill="url(#gg333)" stroke="#2b2119" stroke-width=".8"/><path d="M220,156 C242,146 258,150 264,162 C256,174 242,180 226,182 Z" fill="#2d2d2d" stroke="#2b2119" stroke-width="1.8" stroke-linejoin="round"/><path d="M226,160 C242,154 252,157 258,163" stroke="url(#gg333)" stroke-width="2" fill="none"/><circle cx="246" cy="168" r="2.4" fill="url(#gg333)" stroke="#2b2119" stroke-width=".8"/><rect x="144" y="52" width="12" height="96" rx="3" fill="url(#gg333)" stroke="#2b2119" stroke-width="1.6"/><path d="M150,44 l10,14 l-20,0 Z" fill="url(#gg333)" stroke="#2b2119" stroke-width="1.4"/><rect width="300" height="400" filter="url(#wc333)" opacity=".1" style="mix-blend-mode:multiply"/><rect width="300" height="400" filter="url(#pa333)" opacity=".085"/><rect x="4" y="4" width="292" height="392" fill="none" stroke="#6d5b3c" stroke-width="1.6" opacity=".8"/><g><rect x="226" y="12" width="50" height="180" rx="3" fill="#f7f2e6" opacity=".93" stroke="#8a7a58" stroke-width="1"/><text x="251" y="46" font-family="Hiragino Mincho ProN,serif" font-size="18" writing-mode="tb" letter-spacing="3" fill="#2b2119" text-anchor="middle">徳川家康</text></g></svg>